<svg xmlns="http://www.w3.org/2000/svg" xmlns:xlink="http://www.w3.org/1999/xlink" aria-hidden="true" role="img" class="iconify iconify--logos" width="35.93" height="32" preserveAspectRatio="xMidYMid meet" viewBox="0 0 256 228">
<path
fill="white"
d="m 25.375,-4.515625 c 0,1.136719 -0.246094,2.140625 -0.734375,3.015625 -0.25,0.492187 -0.558594,0.9375 -0.921875,1.34375 C 23.351563,0.238281 22.945313,0.617188 22.5,0.984375 22.050781,1.359375 21.550781,1.695313 21,2 20.457031,2.3125 19.875,2.5625 19.25,2.75 18,3.144531 16.625,3.351563 15.125,3.375 14.4375,3.375 13.785156,3.347656 13.171875,3.296875 12.554688,3.242188 12.003906,3.191406 11.515625,3.140625 10.953125,3.054688 10.410156,2.960938 9.890625,2.859375 9.367188,2.753906 8.859375,2.632813 8.359375,2.5 7.867188,2.375 7.394531,2.207031 6.9375,2 L 5.625,1.375 C 5.195313,1.125 4.757813,0.847656 4.3125,0.546875 3.863281,0.242188 3.382813,-0.0625 2.875,-0.375 L 7.234375,-4.25 c 1.25,0.980469 2.5,1.648437 3.75,2 0.625,0.1875 1.257813,0.339844 1.90625,0.453125 0.644531,0.105469 1.3125,0.167969 2,0.1875 0.3125,-0.019531 0.597656,-0.050781 0.859375,-0.09375 C 16.007813,-1.753906 16.257813,-1.8125 16.5,-1.875 16.75,-1.9375 16.988281,-2.023438 17.21875,-2.140625 17.457031,-2.253906 17.675781,-2.375 17.875,-2.5 c 0.195313,-0.132813 0.363281,-0.28125 0.5,-0.4375 L 18.75,-3.375 c 0.25,-0.363281 0.375,-0.742188 0.375,-1.140625 0,-0.226563 -0.02734,-0.445313 -0.07813,-0.65625 C 19.003906,-5.378906 18.945313,-5.570313 18.875,-5.75 18.8125,-5.9375 18.691406,-6.117188 18.515625,-6.296875 18.335938,-6.472656 18.125,-6.617188 17.875,-6.734375 17.613281,-6.929688 17.320313,-7.101563 17,-7.25 c -0.3125,-0.144531 -0.6875,-0.3125 -1.125,-0.5 -0.429687,-0.1875 -0.90625,-0.367188 -1.4375,-0.546875 -0.523437,-0.1875 -1.125,-0.378906 -1.8125,-0.578125 -1.136719,-0.351563 -2.257812,-0.773438 -3.359375,-1.265625 -0.574219,-0.25 -1.085937,-0.519531 -1.53125,-0.8125 -0.449219,-0.289063 -0.867187,-0.597656 -1.25,-0.921875 -0.375,-0.320313 -0.730469,-0.6875 -1.0625,-1.09375 C 5.085938,-13.382813 4.820313,-13.804688 4.625,-14.234375 4.3125,-14.804688 4.085938,-15.378906 3.953125,-15.953125 3.816406,-16.523438 3.75,-17.125 3.75,-17.75 3.75,-19 4,-20.125 4.5,-21.125 c 0.5,-1 1.242188,-1.878906 2.234375,-2.640625 0.445313,-0.3125 0.941406,-0.609375 1.484375,-0.890625 0.550781,-0.28125 1.140625,-0.519531 1.765625,-0.71875 0.625,-0.195313 1.28125,-0.347656 1.96875,-0.453125 0.6875,-0.101563 1.367188,-0.15625 2.046875,-0.15625 1.195313,-0.01953 2.3125,0.04297 3.34375,0.1875 1.03125,0.148437 1.957031,0.371094 2.78125,0.671875 0.820313,0.304687 1.597656,0.65625 2.328125,1.0625 0.738281,0.398437 1.421875,0.875 2.046875,1.4375 l -4.25,3.875 c -0.375,-0.3125 -0.78125,-0.613281 -1.21875,-0.90625 -0.4375,-0.289063 -0.902344,-0.523438 -1.390625,-0.703125 -1.023437,-0.375 -2.15625,-0.550781 -3.40625,-0.53125 -0.292969,0.02344 -0.570312,0.05859 -0.828125,0.109375 -0.261719,0.04297 -0.523437,0.09375 -0.78125,0.15625 -0.3125,0.0625 -0.578125,0.152344 -0.796875,0.265625 C 11.617188,-20.242188 11.425781,-20.125 11.25,-20 c -0.179687,0.125 -0.339844,0.277344 -0.484375,0.453125 -0.148437,0.179687 -0.277344,0.355469 -0.390625,0.53125 -0.261719,0.398437 -0.390625,0.777344 -0.390625,1.140625 0,0.46875 0.128906,0.890625 0.390625,1.265625 0.05078,0.179687 0.164063,0.339844 0.34375,0.484375 0.175781,0.148437 0.390625,0.3125 0.640625,0.5 0.257813,0.179687 0.550781,0.34375 0.875,0.5 0.320313,0.148437 0.707031,0.3125 1.15625,0.5 0.84375,0.375 1.878906,0.75 3.109375,1.125 0.8125,0.25 1.539063,0.511719 2.1875,0.78125 0.644531,0.261719 1.242188,0.546875 1.796875,0.859375 0.5625,0.3125 1.070313,0.632812 1.53125,0.953125 0.457031,0.3125 0.867188,0.65625 1.234375,1.03125 0.375,0.375 0.691406,0.761719 0.953125,1.15625 0.269531,0.386719 0.492188,0.792969 0.671875,1.21875 0.351563,0.875 0.519531,1.871094 0.5,2.984375 z m 35.125,7.5 H 54.375 V -9.5 H 43.015625 V 2.984375 h -6.125 V -25.375 h 6.125 v 11.25 H 54.375 v -11.25 H 60.5 Z m 33.859375,0 H 72.015625 V -25.375 h 22.34375 v 4.484375 h -16.375 V -14.125 h 15.15625 V -9.75 H 77.984375 V -2 h 16.375 z m 18.140625,0 h -6.125 V -25.375 H 112.5 Z M 147.125,-25.375 V 3.75 L 129.98437,-11.140625 V 2.75 h -5.96874 v -29 l 17.10937,14.875 v -14 z m -6,0 h 6 z m 0,0">
</path>
</svg>


